<svg width="183" height="47" viewBox="0 0 183 47" fill="none" xmlns="http://www.w3.org/2000/svg">
<path fill-rule="evenodd" clip-rule="evenodd" d="M7.3408 40.6575L4.67548 42.2805C2.62065 43.5164 0 42.0423 0 39.645V7.36334C0 4.95115 2.62065 3.47703 4.67548 4.7278L13.5797 10.1329C13.1777 10.0584 12.7608 10.0138 12.329 10.0138C8.10019 10.0138 4.66059 13.3491 4.45213 17.5184H7.81728C8.30866 17.5184 8.80003 17.9204 8.82981 18.4267C8.85959 18.9776 8.41289 19.4392 7.86195 19.4392H4.45213V21.3153H7.86195C8.41289 21.3153 8.85959 21.762 8.82981 22.3279C8.80003 22.849 8.33844 23.2362 7.81728 23.2362H4.45213V25.0974H7.81728C8.30866 25.0974 8.80003 25.5143 8.82981 26.0206C8.85959 26.5715 8.41289 27.0331 7.86195 27.0331H4.45213C4.66059 31.2023 8.10019 34.5228 12.329 34.5228C12.463 34.5228 12.597 34.5079 12.7459 34.5079L11.1527 36.2203V38.3496L11.0186 38.424H9.67854C8.42778 38.424 7.40036 39.4217 7.3408 40.6575ZM31.284 26.1397L13.5053 36.9201V34.4335C17.1682 33.8826 20.0122 30.8003 20.1909 27.0331H16.7811C16.2302 27.0331 15.7984 26.5715 15.8133 26.0206C15.843 25.5143 16.3344 25.0974 16.8407 25.0974H20.2058V23.2362H16.7811C16.2302 23.2362 15.7984 22.7746 15.8133 22.2236C15.843 21.7025 16.3195 21.3153 16.8407 21.3153H20.2058V19.4392H16.8407C16.3344 19.4392 15.843 19.0372 15.8133 18.5309C15.7984 17.98 16.2302 17.5184 16.7811 17.5184H20.1909C20.1165 15.8953 19.5507 14.4063 18.6424 13.1854L31.284 20.8686C33.2644 22.0598 33.2644 24.9336 31.284 26.1397Z" fill="url(#paint0_linear_3688_1852)"/>
<path style="mix-blend-mode:multiply" fill-rule="evenodd" clip-rule="evenodd" d="M12.7459 34.5079L11.1527 36.2203V38.3496L11.0186 38.424H9.67854C8.42778 38.424 7.40036 39.4217 7.3408 40.6575L4.67548 42.2805C2.62065 43.5164 0 42.0423 0 39.645V7.36334C0 4.95115 2.62065 3.47703 4.67548 4.7278L13.5797 10.1329C13.1777 10.0584 12.7608 10.0138 12.329 10.0138C8.10019 10.0138 4.66059 13.3491 4.45213 17.5184H7.81728C8.30866 17.5184 8.80003 17.9204 8.82981 18.4267C8.85959 18.9776 8.41289 19.4392 7.86195 19.4392H4.45213V21.3153H7.86195C8.41289 21.3153 8.85959 21.762 8.82981 22.3279C8.80003 22.849 8.33844 23.2362 7.81728 23.2362H4.45213V25.0974H7.81728C8.30866 25.0974 8.80003 25.5143 8.82981 26.0206C8.85959 26.5715 8.41289 27.0331 7.86195 27.0331H4.45213C4.66059 31.2023 8.10019 34.5228 12.329 34.5228C12.463 34.5228 12.597 34.5079 12.7459 34.5079ZM23.02 31.1428L13.5053 36.9201V34.4335C17.1682 33.8826 20.0122 30.8003 20.1909 27.0331H16.7811C16.2302 27.0331 15.7984 26.5715 15.8133 26.0206C15.843 25.5143 16.3344 25.0974 16.8407 25.0974H20.2058V23.2362H16.7811C16.2302 23.2362 15.7984 22.7746 15.8133 22.2236C15.843 21.7025 16.3195 21.3153 16.8407 21.3153H20.2058V19.7668C20.9057 21.4345 21.5013 23.1617 21.9777 24.9485C22.5436 27.0927 22.886 29.1624 23.02 31.1428ZM16.7811 17.5184H19.1635C19.4812 18.1437 19.779 18.784 20.0569 19.4392H16.8407C16.3344 19.4392 15.843 19.0372 15.8133 18.5309C15.7984 17.98 16.2302 17.5184 16.7811 17.5184Z" fill="url(#paint1_linear_3688_1852)"/>
<path style="mix-blend-mode:screen" fill-rule="evenodd" clip-rule="evenodd" d="M4.45213 20.6453V19.4392H7.86195C8.41289 19.4392 8.85959 18.9776 8.82981 18.4267C8.80003 17.9204 8.30866 17.5184 7.81729 17.5184H4.45213C4.66059 13.3491 8.10019 10.0138 12.329 10.0138C12.7608 10.0138 13.1777 10.0584 13.5797 10.1329L4.67548 4.7278C2.62065 3.47703 0 4.95115 0 7.36334V16.9823C1.31033 18.3075 2.79933 19.5285 4.45213 20.6453ZM8.82981 22.3279C8.85959 21.762 8.41289 21.3153 7.86195 21.3153H5.47954C6.44243 21.9109 7.45 22.4668 8.50223 22.983C8.6958 22.8192 8.81492 22.581 8.82981 22.3279ZM31.284 20.8686L18.6424 13.1854C19.5507 14.4063 20.1165 15.8953 20.1909 17.5184H16.7811C16.2302 17.5184 15.7984 17.98 15.8133 18.5309C15.843 19.0371 16.3344 19.4392 16.8407 19.4392H20.2058V21.3153H16.8407C16.3195 21.3153 15.843 21.7025 15.8133 22.2236C15.7984 22.7746 16.2302 23.2361 16.7811 23.2361H20.2058V25.0974H16.8407C16.4535 25.0974 16.0962 25.3357 15.9175 25.6632C17.3767 26.0206 18.8806 26.3035 20.4143 26.4822C24.3304 26.9587 28.038 26.78 31.3883 26.0653C33.2495 24.8294 33.2197 22.0449 31.284 20.8686Z" fill="url(#paint2_linear_3688_1852)"/>
<path style="mix-blend-mode:screen" fill-rule="evenodd" clip-rule="evenodd" d="M31.284 26.1397L13.5053 36.9201V34.4334C17.1682 33.8825 20.0122 30.8002 20.1909 27.0331H16.7811C16.2302 27.0331 15.7984 26.5715 15.8133 26.0205C15.843 25.5143 16.3344 25.0974 16.8407 25.0974H20.2058V23.2361H16.7811C16.2302 23.2361 15.7984 22.7745 15.8133 22.2236C15.843 21.7024 16.3195 21.3153 16.8407 21.3153H20.2058V19.4391H16.8407C16.3344 19.4391 15.843 19.0371 15.8133 18.5308C15.7984 17.9799 16.2302 17.5183 16.7811 17.5183H20.1909C20.1314 16.3867 19.8336 15.3146 19.3571 14.3616C19.7045 14.3219 20.052 14.2872 20.3994 14.2574L31.284 20.8686C33.2644 22.0598 33.2644 24.9336 31.284 26.1397ZM0 39.6449V27.4798C1.19121 25.2314 2.79933 23.1319 4.73504 21.3153H7.86195C8.41289 21.3153 8.85959 21.762 8.82981 22.3278C8.80003 22.849 8.33844 23.2361 7.81729 23.2361H4.45213V25.0974H7.81729C8.30866 25.0974 8.80003 25.5143 8.82981 26.0205C8.85959 26.5715 8.41289 27.0331 7.86195 27.0331H4.45213C4.66059 31.2023 8.10019 34.5228 12.329 34.5228C12.463 34.5228 12.597 34.5079 12.7459 34.5079L11.1527 36.2202V38.3495L11.0186 38.424H9.67854C8.42778 38.424 7.40036 39.4216 7.3408 40.6575L4.67548 42.2805C2.62065 43.5164 0 42.0422 0 39.6449ZM6.92388 19.4391C7.51948 18.9924 8.13494 18.5705 8.77025 18.1735C8.80003 18.2479 8.82981 18.3373 8.82981 18.4266C8.85959 18.9775 8.41289 19.4391 7.86195 19.4391H6.92388Z" fill="url(#paint3_linear_3688_1852)"/>
 <text fill="white" xml:space="preserve" style="white-space: pre" font-size="32" font-weight="bold" letter-spacing="0em">
        <tspan x="40.4766" y="34.6318">PodCraft</tspan>
    </text>
<defs>
<linearGradient id="paint0_linear_3688_1852" x1="23.5406" y1="-11.1315" x2="65.0595" y2="30.3874" gradientUnits="userSpaceOnUse">
<stop stop-color="#FD6D6D"/>
<stop offset="1" stop-color="#F97535"/>
</linearGradient>
<linearGradient id="paint1_linear_3688_1852" x1="-23.1895" y1="6.72857" x2="0.555087" y2="-15.7833" gradientUnits="userSpaceOnUse">
<stop stop-color="white"/>
<stop offset="0.987" stop-color="#D937BE"/>
<stop offset="1" stop-color="#D837BF"/>
</linearGradient>
<linearGradient id="paint2_linear_3688_1852" x1="20.5912" y1="-6.66742" x2="32.4836" y2="30.5707" gradientUnits="userSpaceOnUse">
<stop stop-color="#FD6D6D"/>
<stop offset="0.5" stop-color="#71381D"/>
<stop offset="1" stop-color="#F97535"/>
</linearGradient>
<linearGradient id="paint3_linear_3688_1852" x1="8.7631" y1="-10.274" x2="35.9592" y2="23.1162" gradientUnits="userSpaceOnUse">
<stop stop-color="#FD6D6D"/>
<stop offset="1"/>
</linearGradient>
</defs>
</svg>
